<svg width="32" height="32" viewBox="0 0 32 32" fill="none" xmlns="http://www.w3.org/2000/svg">
<path d="M22.6667 29.3333V26.6667H26.6667V22.6667H29.3333V27.3333C29.3333 27.8667 29.0667 28.2667 28.6667 28.6667C28.2667 29.0667 27.7333 29.3333 27.3333 29.3333H22.6667ZM9.33332 29.3333H4.66666C4.13332 29.3333 3.73332 29.0667 3.33332 28.6667C2.93332 28.2667 2.66666 27.7333 2.66666 27.3333V22.6667H5.33332V26.6667H9.33332V29.3333ZM22.6667 2.66666H27.3333C27.8667 2.66666 28.2667 2.93333 28.6667 3.33333C29.0667 3.73333 29.3333 4.13333 29.3333 4.66666V9.33333H26.6667V5.33333H22.6667V2.66666ZM9.33332 2.66666V5.33333H5.33332V9.33333H2.66666V4.66666C2.66666 4.13333 2.93332 3.73333 3.33332 3.33333C3.73332 2.93333 4.13332 2.66666 4.66666 2.66666H9.33332ZM25.3333 14.6667H6.66666V17.3333H25.3333V14.6667Z" fill="#F2F2F2"/>
</svg>
