<svg width="32" height="32" viewBox="0 0 32 32" fill="none" xmlns="http://www.w3.org/2000/svg">
<path d="M5 26C5 27.0609 5.42143 28.0783 6.17157 28.8284C6.92172 29.5786 7.93913 30 9 30H14.75C14.8163 30 14.8799 29.9737 14.9268 29.9268C14.9737 29.8799 15 29.8163 15 29.75V18.25C15 18.1837 14.9737 18.1201 14.9268 18.0732C14.8799 18.0263 14.8163 18 14.75 18H5.5C5.36739 18 5.24021 18.0527 5.14645 18.1464C5.05268 18.2402 5 18.3674 5 18.5V26ZM15 15.75V9H17V15.75C17 15.8163 17.0263 15.8799 17.0732 15.9268C17.1201 15.9737 17.1837 16 17.25 16H26C26.3407 16 26.6789 15.9419 27 15.8281C27.5844 15.6206 28.0903 15.2375 28.4484 14.7311C28.8064 14.2248 28.9991 13.6201 29 13V12C29 11.2043 28.6839 10.4413 28.1213 9.87868C27.5587 9.31607 26.7956 9 26 9H23.4662C23.4445 8.99965 23.4232 8.99362 23.4044 8.98251C23.3857 8.9714 23.3702 8.95558 23.3595 8.93664C23.3488 8.9177 23.3432 8.89628 23.3432 8.8745C23.3433 8.85273 23.3491 8.83135 23.36 8.8125C23.9386 7.83555 24.1266 6.67597 23.8861 5.56626C23.6457 4.45656 22.9946 3.47878 22.0635 2.82897C21.1323 2.17917 19.99 1.90539 18.8654 2.06252C17.7409 2.21966 16.7174 2.7961 16 3.67625C15.2826 2.7961 14.2591 2.21966 13.1346 2.06252C12.01 1.90539 10.8677 2.17917 9.93653 2.82897C9.00539 3.47878 8.35432 4.45656 8.11387 5.56626C7.87342 6.67597 8.06135 7.83555 8.64 8.8125C8.65089 8.83135 8.65667 8.85273 8.65675 8.8745C8.65684 8.89628 8.65124 8.9177 8.64051 8.93664C8.62977 8.95558 8.61428 8.9714 8.59555 8.98251C8.57683 8.99362 8.55552 8.99965 8.53375 9H6C5.20435 9 4.44129 9.31607 3.87868 9.87868C3.31607 10.4413 3 11.2043 3 12V13C3.00088 13.6201 3.19356 14.2248 3.55163 14.7311C3.90969 15.2375 4.4156 15.6206 5 15.8281C5.32113 15.9419 5.65932 16 6 16H14.75C14.8163 16 14.8799 15.9737 14.9268 15.9268C14.9737 15.8799 15 15.8163 15 15.75ZM17 6.5C17 6.00554 17.1466 5.5222 17.4213 5.11107C17.696 4.69995 18.0865 4.37952 18.5433 4.1903C19.0001 4.00108 19.5028 3.95157 19.9877 4.04803C20.4727 4.1445 20.9181 4.3826 21.2678 4.73223C21.6174 5.08186 21.8555 5.52732 21.952 6.01227C22.0484 6.49722 21.9989 6.99989 21.8097 7.45671C21.6205 7.91352 21.3 8.30397 20.8889 8.57867C20.4778 8.85338 19.9945 9 19.5 9H17V6.5ZM12.3212 4.00625C12.6637 3.9817 13.0076 4.02796 13.3315 4.14217C13.6553 4.25637 13.9521 4.43606 14.2035 4.67003C14.4548 4.904 14.6552 5.18723 14.7923 5.50208C14.9293 5.81692 15 6.15662 15 6.5V9H12.5C11.8536 8.99834 11.2329 8.74634 10.7683 8.29689C10.3036 7.84744 10.0311 7.23548 10.008 6.58945C9.98489 5.94342 10.2129 5.31354 10.6442 4.83201C11.0755 4.35049 11.6766 4.05475 12.3212 4.00687V4.00625ZM17.25 30H23C24.0609 30 25.0783 29.5786 25.8284 28.8284C26.5786 28.0783 27 27.0609 27 26V18.5C27 18.3674 26.9473 18.2402 26.8536 18.1464C26.7598 18.0527 26.6326 18 26.5 18H17.25C17.1837 18 17.1201 18.0263 17.0732 18.0732C17.0263 18.1201 17 18.1837 17 18.25V29.75C17 29.8163 17.0263 29.8799 17.0732 29.9268C17.1201 29.9737 17.1837 30 17.25 30Z" fill="#F2F2F2"/>
</svg>
