<svg width="32" height="32" viewBox="0 0 32 32" fill="none" xmlns="http://www.w3.org/2000/svg">
<path d="M19 1.29999H13C7.15 2.49999 2.5 7.09999 1.3 13V19C2.5 24.9 7.15 29.5 13 30.7H19C24.9 29.5 29.5 24.85 30.7 19V13C29.5 7.09999 24.85 2.49999 19 1.29999Z" fill="#F9F9F9"/>
<path d="M19 13V1.3C18.05 1.1 17.05 1 16 1C14.95 1 13.95 1.1 13 1.3V13H1.3C1.1 13.95 1 14.95 1 16C1 17.05 1.1 18.05 1.3 19H13V30.7C13.95 30.9 14.95 31 16 31C17.05 31 18.05 30.9 19 30.7V19H30.7C30.9 18.05 31 17.05 31 16C31 14.95 30.9 13.95 30.7 13H19Z" fill="#ED4C5C"/>
<path d="M9 10H7L7.5 7L7 4H9L8.5 7L9 10Z" fill="#ED4C5C"/>
<path d="M5 8V6L8 6.5L11 6V8L8 7.5L5 8ZM25 10H23L23.5 7L23 4H25L24.5 7L25 10Z" fill="#ED4C5C"/>
<path d="M21 8V6L24 6.5L27 6V8L24 7.5L21 8ZM9 28H7C7 28 7.5 25.75 7.5 25C7.5 24.25 7 22 7 22H9C9 22 8.5 24.25 8.5 25C8.5 25.75 9 28 9 28Z" fill="#ED4C5C"/>
<path d="M5 26V24L8 24.5L11 24V26L8 25.5L5 26ZM25 28H23L23.5 25L23 22H25L24.5 25L25 28Z" fill="#ED4C5C"/>
<path d="M21 26V24L24 24.5L27 24V26L24 25.5L21 26Z" fill="#ED4C5C"/>
</svg>
