<svg width="48" height="48" viewBox="0 0 48 48" fill="none" xmlns="http://www.w3.org/2000/svg">
<path d="M24 13.308C25.6193 14.5791 26.9283 16.2019 27.8278 18.0536C28.7273 19.9053 29.1938 21.9374 29.192 23.996C29.1932 26.054 28.7264 28.0852 27.827 29.9362C26.9275 31.7872 25.6188 33.4093 24 34.68C22.3809 33.4091 21.0721 31.7866 20.1726 29.9353C19.2731 28.084 18.8065 26.0523 18.808 23.994C18.8065 21.9357 19.2731 19.9041 20.1726 18.0527C21.0721 16.2014 22.3809 14.5789 24 13.308ZM22.26 12.144C20.5459 13.6072 19.17 15.4251 18.2273 17.4721C17.2846 19.5191 16.7976 21.7464 16.8 24C16.7977 26.2527 17.2843 28.479 18.2263 30.5253C19.1683 32.5715 20.5432 34.3889 22.256 35.852C20.1868 37.0136 17.8496 37.6134 15.4767 37.5918C13.1038 37.5701 10.7779 36.9278 8.73021 35.7287C6.6825 34.5296 4.9843 32.8154 3.80441 30.7565C2.62452 28.6977 2.00404 26.3659 2.00464 23.9929C2.00524 21.6199 2.6269 19.2884 3.80784 17.2302C4.98877 15.1719 6.68784 13.4586 8.73615 12.2605C10.7845 11.0624 13.1107 10.4213 15.4836 10.4008C17.8565 10.3804 20.1914 10.9814 22.26 12.144ZM25.744 35.852C27.4569 34.3889 28.8317 32.5715 29.7737 30.5253C30.7157 28.479 31.2023 26.2527 31.2 24C31.2024 21.7464 30.7155 19.5191 29.7728 17.4721C28.8301 15.4251 27.4541 13.6072 25.74 12.144C27.8086 10.9814 30.1456 10.3804 32.5185 10.4008C34.8913 10.4213 37.2176 11.0624 39.2659 12.2605C41.3142 13.4586 43.0132 15.1719 44.1942 17.2302C45.3751 19.2884 45.9968 21.6199 45.9974 23.9929C45.998 26.3659 45.3775 28.6977 44.1976 30.7565C43.0177 32.8154 41.3195 34.5296 39.2718 35.7287C37.2241 36.9278 34.8982 37.5701 32.5253 37.5918C30.1525 37.6134 27.8152 37.0136 25.746 35.852H25.744Z" fill="#BCBCBC"/>
</svg>
