<svg width="33" height="32" viewBox="0 0 33 32" fill="none" xmlns="http://www.w3.org/2000/svg">
<path d="M20.5016 27.2L20.5 27.2L20.45 27.2H20.4384L20.4384 27.1997C20.2051 27.1862 19.9807 27.1055 19.7921 26.9674C19.6035 26.8293 19.4589 26.6397 19.3756 26.4213L19.5625 26.35L19.3756 26.4213L12.3965 8.11925L8.59469 16.495L20.5016 27.2ZM20.5016 27.2C20.7236 27.1982 20.941 27.1361 21.1305 27.0203C21.3199 26.9045 21.4743 26.7394 21.5772 26.5427L21.5773 26.5427L21.579 26.5393L26.2363 17.2H29.5C29.8183 17.2 30.1235 17.0736 30.3485 16.8485C30.5736 16.6235 30.7 16.3183 30.7 16C30.7 15.6818 30.5736 15.3765 30.3485 15.1515C30.1235 14.9264 29.8183 14.8 29.5 14.8L25.5 14.8L25.4984 14.8C25.2764 14.8018 25.059 14.8639 24.8695 14.9797C24.6801 15.0955 24.5257 15.2606 24.4228 15.4573L24.4227 15.4573L24.4211 15.4607L20.6496 23.0154M20.5016 27.2L20.6496 23.0154M20.6496 23.0154L13.6249 4.58015C13.6248 4.57991 13.6247 4.57967 13.6246 4.57942C13.5418 4.35757 13.3951 4.16518 13.2031 4.02651C13.0109 3.88769 12.7818 3.80892 12.5449 3.80015V3.80013L12.542 3.80006C12.3051 3.79476 12.0718 3.85827 11.8702 3.98289C11.6687 4.10751 11.5077 4.2879 11.4066 4.5022L11.4066 4.50219L11.4055 4.50469L6.72127 14.8H3.5C3.18174 14.8 2.87652 14.9264 2.65147 15.1515C2.42643 15.3765 2.3 15.6818 2.3 16C2.3 16.3183 2.42643 16.6235 2.65147 16.8485C2.87652 17.0736 3.18174 17.2 3.5 17.2H7.49969H7.5V17L20.6496 23.0154Z" fill="#7C7C7C" stroke="#7C7C7C" stroke-width="0.4"/>
</svg>
